<svg width="437" height="67" viewBox="0 0 437 67" fill="none" xmlns="http://www.w3.org/2000/svg">
<path d="M6.768 17.288C5.70133 17.288 4.78933 17.1013 4.032 16.728C3.28533 16.3547 2.68267 15.8693 2.224 15.272C1.76533 14.6747 1.42933 14.0293 1.216 13.336C1.00267 12.632 0.896 11.9547 0.896 11.304V10.952C0.896 10.248 1.00267 9.544 1.216 8.84C1.44 8.136 1.78133 7.496 2.24 6.92C2.69867 6.344 3.296 5.88 4.032 5.528C4.768 5.176 5.648 5 6.672 5C7.71733 5 8.61333 5.18133 9.36 5.544C10.1067 5.90667 10.6987 6.41333 11.136 7.064C11.5733 7.71467 11.84 8.48267 11.936 9.368H10.336C10.2507 8.70667 10.0373 8.16267 9.696 7.736C9.35467 7.29867 8.92267 6.97333 8.4 6.76C7.888 6.54667 7.312 6.44 6.672 6.44C5.97867 6.44 5.37067 6.56267 4.848 6.808C4.32533 7.04267 3.888 7.37867 3.536 7.816C3.19467 8.24267 2.93333 8.73867 2.752 9.304C2.58133 9.86933 2.496 10.4827 2.496 11.144C2.496 11.7733 2.58133 12.3707 2.752 12.936C2.93333 13.5013 3.2 14.0027 3.552 14.44C3.91467 14.8773 4.36267 15.224 4.896 15.48C5.42933 15.7253 6.05333 15.848 6.768 15.848C7.77067 15.848 8.61333 15.5973 9.296 15.096C9.97867 14.5947 10.3947 13.8693 10.544 12.92H12.144C12.0373 13.72 11.7653 14.4507 11.328 15.112C10.9013 15.7733 10.304 16.3013 9.536 16.696C8.77867 17.0907 7.856 17.288 6.768 17.288ZM17.8244 17.288C17.0777 17.288 16.4324 17.16 15.8884 16.904C15.3444 16.648 14.9017 16.312 14.5604 15.896C14.219 15.4693 13.963 14.9947 13.7924 14.472C13.6324 13.9493 13.5524 13.416 13.5524 12.872V12.584C13.5524 12.0293 13.6324 11.4907 13.7924 10.968C13.963 10.4453 14.219 9.976 14.5604 9.56C14.9017 9.13333 15.3337 8.79733 15.8564 8.552C16.3897 8.296 17.0137 8.168 17.7284 8.168C18.6564 8.168 19.419 8.37067 20.0164 8.776C20.6244 9.17067 21.0724 9.68267 21.3604 10.312C21.659 10.9413 21.8084 11.6133 21.8084 12.328V13.016H14.2244V11.864H20.6884L20.3364 12.488C20.3364 11.88 20.2404 11.3573 20.0484 10.92C19.8564 10.472 19.5684 10.1253 19.1844 9.88C18.8004 9.63467 18.315 9.512 17.7284 9.512C17.1204 9.512 16.6137 9.65067 16.2084 9.928C15.8137 10.2053 15.515 10.584 15.3124 11.064C15.1204 11.544 15.0244 12.0987 15.0244 12.728C15.0244 13.336 15.1204 13.8853 15.3124 14.376C15.515 14.856 15.8244 15.24 16.2404 15.528C16.6564 15.8053 17.1844 15.944 17.8244 15.944C18.4964 15.944 19.0404 15.7947 19.4564 15.496C19.883 15.1973 20.139 14.8507 20.2244 14.456H21.6644C21.547 15.0427 21.3124 15.5493 20.9604 15.976C20.6084 16.4027 20.1657 16.728 19.6324 16.952C19.099 17.176 18.4964 17.288 17.8244 17.288ZM23.9908 17V8.456H25.2068V11.976H25.1428C25.1428 10.728 25.4148 9.816 25.9588 9.24C26.5135 8.65333 27.3402 8.36 28.4388 8.36H28.7268V9.736H28.1828C27.3295 9.736 26.6735 9.96533 26.2148 10.424C25.7562 10.872 25.5268 11.5227 25.5268 12.376V17H23.9908ZM34.0392 17.096C33.3992 17.096 32.8445 17.0053 32.3752 16.824C31.9165 16.6427 31.5592 16.3333 31.3032 15.896C31.0578 15.448 30.9352 14.8453 30.9352 14.088V5.864H32.4072V14.28C32.4072 14.7387 32.5298 15.096 32.7752 15.352C33.0312 15.5973 33.3885 15.72 33.8472 15.72H35.3512V17.096H34.0392ZM29.4632 9.608V8.456H35.3512V9.608H29.4632ZM37.9413 17V8.456H39.4773V17H37.9413ZM36.6293 9.672V8.456H39.4773V9.672H36.6293ZM38.3733 7.08C38.0319 7.08 37.7759 6.98933 37.6053 6.808C37.4453 6.62667 37.3653 6.39733 37.3653 6.12C37.3653 5.84267 37.4453 5.61333 37.6053 5.432C37.7759 5.25067 38.0319 5.16 38.3733 5.16C38.7146 5.16 38.9653 5.25067 39.1253 5.432C39.2959 5.61333 39.3813 5.84267 39.3813 6.12C39.3813 6.39733 39.2959 6.62667 39.1253 6.808C38.9653 6.98933 38.7146 7.08 38.3733 7.08ZM42.6727 17V7.928C42.6727 6.97867 42.9234 6.28 43.4247 5.832C43.9261 5.384 44.6621 5.16 45.6327 5.16H46.5927V6.44H45.3767C44.9821 6.44 44.6781 6.552 44.4647 6.776C44.2514 6.98933 44.1447 7.288 44.1447 7.672V17H42.6727ZM41.4887 9.608V8.456H46.4327V9.608H41.4887ZM48.5447 17V8.456H50.0807V17H48.5447ZM47.2967 9.672V8.456H50.0807V9.672H47.2967ZM48.9767 7.08C48.6354 7.08 48.3794 6.98933 48.2087 6.808C48.0487 6.62667 47.9687 6.39733 47.9687 6.12C47.9687 5.84267 48.0487 5.61333 48.2087 5.432C48.3794 5.25067 48.6354 5.16 48.9767 5.16C49.3181 5.16 49.5687 5.25067 49.7288 5.432C49.8994 5.61333 49.9847 5.84267 49.9847 6.12C49.9847 6.39733 49.8994 6.62667 49.7288 6.808C49.5687 6.98933 49.3181 7.08 48.9767 7.08ZM56.6917 17.288C55.9451 17.288 55.2997 17.16 54.7557 16.904C54.2117 16.648 53.7691 16.312 53.4277 15.896C53.0864 15.4693 52.8304 14.9947 52.6597 14.472C52.4997 13.9493 52.4197 13.416 52.4197 12.872V12.584C52.4197 12.0293 52.4997 11.4907 52.6597 10.968C52.8304 10.4453 53.0864 9.976 53.4277 9.56C53.7691 9.13333 54.2011 8.79733 54.7237 8.552C55.2571 8.296 55.8811 8.168 56.5957 8.168C57.5237 8.168 58.2864 8.37067 58.8837 8.776C59.4917 9.17067 59.9397 9.68267 60.2277 10.312C60.5264 10.9413 60.6757 11.6133 60.6757 12.328V13.016H53.0917V11.864H59.5557L59.2037 12.488C59.2037 11.88 59.1077 11.3573 58.9157 10.92C58.7237 10.472 58.4357 10.1253 58.0517 9.88C57.6677 9.63467 57.1824 9.512 56.5957 9.512C55.9877 9.512 55.4811 9.65067 55.0757 9.928C54.6811 10.2053 54.3824 10.584 54.1797 11.064C53.9877 11.544 53.8917 12.0987 53.8917 12.728C53.8917 13.336 53.9877 13.8853 54.1797 14.376C54.3824 14.856 54.6917 15.24 55.1077 15.528C55.5237 15.8053 56.0517 15.944 56.6917 15.944C57.3637 15.944 57.9077 15.7947 58.3237 15.496C58.7504 15.1973 59.0064 14.8507 59.0917 14.456H60.5317C60.4144 15.0427 60.1797 15.5493 59.8277 15.976C59.4757 16.4027 59.0331 16.728 58.4997 16.952C57.9664 17.176 57.3637 17.288 56.6917 17.288ZM66.4262 17.288C65.8182 17.288 65.2582 17.176 64.7462 16.952C64.2342 16.728 63.7862 16.4133 63.4022 16.008C63.0289 15.6027 62.7355 15.1333 62.5222 14.6C62.3195 14.0667 62.2182 13.4907 62.2182 12.872V12.584C62.2182 11.976 62.3195 11.4053 62.5222 10.872C62.7249 10.3387 63.0075 9.86933 63.3702 9.464C63.7435 9.05867 64.1809 8.744 64.6822 8.52C65.1942 8.28533 65.7595 8.168 66.3782 8.168C67.0289 8.168 67.6209 8.30667 68.1542 8.584C68.6875 8.85067 69.1249 9.272 69.4662 9.848C69.8075 10.424 69.9995 11.1707 70.0422 12.088L69.4022 11.064V5.32H70.9382V17H69.7222V13.208H70.1702C70.1275 14.1787 69.9249 14.968 69.5622 15.576C69.1995 16.1733 68.7409 16.6107 68.1862 16.888C67.6422 17.1547 67.0555 17.288 66.4262 17.288ZM66.6342 15.944C67.1569 15.944 67.6315 15.8267 68.0582 15.592C68.4849 15.3573 68.8262 15.0213 69.0822 14.584C69.3382 14.136 69.4662 13.6133 69.4662 13.016V12.28C69.4662 11.6933 69.3329 11.1973 69.0662 10.792C68.8102 10.376 68.4635 10.0613 68.0262 9.848C67.5995 9.624 67.1302 9.512 66.6182 9.512C66.0529 9.512 65.5515 9.64533 65.1142 9.912C64.6875 10.1787 64.3515 10.552 64.1062 11.032C63.8715 11.512 63.7542 12.0773 63.7542 12.728C63.7542 13.3787 63.8769 13.9493 64.1222 14.44C64.3675 14.92 64.7089 15.2933 65.1462 15.56C65.5835 15.816 66.0795 15.944 66.6342 15.944ZM77.7893 17V5.32H79.3573V17H77.7893ZM82.5661 17V8.456H83.7821V12.12H83.5901C83.5901 11.2773 83.7021 10.568 83.9261 9.992C84.1608 9.40533 84.5128 8.96267 84.9821 8.664C85.4515 8.35467 86.0435 8.2 86.7581 8.2H86.8221C87.8995 8.2 88.6941 8.536 89.2061 9.208C89.7288 9.88 89.9901 10.8507 89.9901 12.12V17H88.4541V11.8C88.4541 11.1387 88.2675 10.6107 87.8941 10.216C87.5208 9.81067 87.0088 9.608 86.3581 9.608C85.6861 9.608 85.1421 9.816 84.7261 10.232C84.3101 10.648 84.1021 11.2027 84.1021 11.896V17H82.5661ZM95.6021 17.256C94.4821 17.256 93.6128 17.016 92.9941 16.536C92.3861 16.056 92.0714 15.4 92.0501 14.568H93.4901C93.5114 14.8987 93.6768 15.2133 93.9861 15.512C94.3061 15.8 94.8448 15.944 95.6021 15.944C96.2848 15.944 96.8074 15.8107 97.1701 15.544C97.5328 15.2667 97.7141 14.9307 97.7141 14.536C97.7141 14.184 97.5808 13.912 97.3141 13.72C97.0474 13.5173 96.6154 13.384 96.0181 13.32L95.0901 13.224C94.2794 13.1387 93.6181 12.8987 93.1061 12.504C92.5941 12.0987 92.3381 11.5333 92.3381 10.808C92.3381 10.264 92.4768 9.8 92.7541 9.416C93.0314 9.02133 93.4154 8.72267 93.9061 8.52C94.3968 8.30667 94.9621 8.2 95.6021 8.2C96.5621 8.2 97.3408 8.41333 97.9381 8.84C98.5354 9.26667 98.8448 9.90133 98.8661 10.744H97.4261C97.4154 10.4027 97.2554 10.1147 96.9461 9.88C96.6474 9.63467 96.1994 9.512 95.6021 9.512C95.0048 9.512 94.5514 9.63467 94.2421 9.88C93.9328 10.1253 93.7781 10.4347 93.7781 10.808C93.7781 11.128 93.8848 11.384 94.0981 11.576C94.3221 11.768 94.6848 11.8907 95.1861 11.944L96.1141 12.04C97.0314 12.136 97.7674 12.392 98.3221 12.808C98.8768 13.2133 99.1541 13.7893 99.1541 14.536C99.1541 15.0693 98.9994 15.544 98.6901 15.96C98.3914 16.3653 97.9754 16.6853 97.4421 16.92C96.9088 17.144 96.2954 17.256 95.6021 17.256ZM104.71 17.096C104.07 17.096 103.515 17.0053 103.046 16.824C102.587 16.6427 102.23 16.3333 101.974 15.896C101.728 15.448 101.606 14.8453 101.606 14.088V5.864H103.078V14.28C103.078 14.7387 103.2 15.096 103.446 15.352C103.702 15.5973 104.059 15.72 104.518 15.72H106.022V17.096H104.71ZM100.134 9.608V8.456H106.022V9.608H100.134ZM113.333 17V14.44H113.077V11.48C113.077 10.8933 112.922 10.4507 112.613 10.152C112.314 9.85333 111.871 9.704 111.285 9.704C110.954 9.704 110.613 9.70933 110.261 9.72C109.909 9.73067 109.573 9.74133 109.253 9.752C108.933 9.76267 108.655 9.77867 108.421 9.8V8.456C108.655 8.43467 108.901 8.41867 109.157 8.408C109.423 8.38667 109.695 8.376 109.973 8.376C110.25 8.36533 110.517 8.36 110.773 8.36C111.647 8.36 112.362 8.46667 112.917 8.68C113.471 8.88267 113.882 9.21867 114.149 9.688C114.415 10.1573 114.549 10.792 114.549 11.592V17H113.333ZM110.533 17.224C109.893 17.224 109.338 17.1173 108.869 16.904C108.41 16.68 108.053 16.36 107.797 15.944C107.551 15.528 107.429 15.0267 107.429 14.44C107.429 13.832 107.562 13.3253 107.829 12.92C108.106 12.5147 108.506 12.2107 109.029 12.008C109.551 11.7947 110.181 11.688 110.917 11.688H113.237V12.84H110.853C110.234 12.84 109.759 12.9893 109.429 13.288C109.098 13.5867 108.933 13.9707 108.933 14.44C108.933 14.9093 109.098 15.288 109.429 15.576C109.759 15.864 110.234 16.008 110.853 16.008C111.215 16.008 111.562 15.944 111.893 15.816C112.223 15.6773 112.495 15.4533 112.709 15.144C112.933 14.824 113.055 14.3867 113.077 13.832L113.493 14.44C113.439 15.048 113.29 15.56 113.045 15.976C112.81 16.3813 112.479 16.6907 112.053 16.904C111.637 17.1173 111.13 17.224 110.533 17.224ZM117.465 17V5.32H119.001V17H117.465ZM116.281 6.536V5.32H119.001V6.536H116.281ZM122.045 17V5.32H123.581V17H122.045ZM120.861 6.536V5.32H123.581V6.536H120.861ZM130.161 17.288C129.414 17.288 128.769 17.16 128.225 16.904C127.681 16.648 127.238 16.312 126.897 15.896C126.556 15.4693 126.3 14.9947 126.129 14.472C125.969 13.9493 125.889 13.416 125.889 12.872V12.584C125.889 12.0293 125.969 11.4907 126.129 10.968C126.3 10.4453 126.556 9.976 126.897 9.56C127.238 9.13333 127.67 8.79733 128.193 8.552C128.726 8.296 129.35 8.168 130.065 8.168C130.993 8.168 131.756 8.37067 132.353 8.776C132.961 9.17067 133.409 9.68267 133.697 10.312C133.996 10.9413 134.145 11.6133 134.145 12.328V13.016H126.561V11.864H133.025L132.673 12.488C132.673 11.88 132.577 11.3573 132.385 10.92C132.193 10.472 131.905 10.1253 131.521 9.88C131.137 9.63467 130.652 9.512 130.065 9.512C129.457 9.512 128.95 9.65067 128.545 9.928C128.15 10.2053 127.852 10.584 127.649 11.064C127.457 11.544 127.361 12.0987 127.361 12.728C127.361 13.336 127.457 13.8853 127.649 14.376C127.852 14.856 128.161 15.24 128.577 15.528C128.993 15.8053 129.521 15.944 130.161 15.944C130.833 15.944 131.377 15.7947 131.793 15.496C132.22 15.1973 132.476 14.8507 132.561 14.456H134.001C133.884 15.0427 133.649 15.5493 133.297 15.976C132.945 16.4027 132.502 16.728 131.969 16.952C131.436 17.176 130.833 17.288 130.161 17.288ZM136.327 17V8.456H137.543V11.976H137.479C137.479 10.728 137.751 9.816 138.295 9.24C138.85 8.65333 139.677 8.36 140.775 8.36H141.063V9.736H140.519C139.666 9.736 139.01 9.96533 138.551 10.424C138.093 10.872 137.863 11.5227 137.863 12.376V17H136.327Z" fill="white"/>
<path d="M9.93531 63.2928C4.1041 62.5825 0.668143 58.5353 0.073458 51.6634C-0.570783 44.1472 3.04688 38.9933 9.96835 37.5892C12.5949 37.0606 16.0969 37.5396 18.7234 38.7951C20.4414 39.621 22.0933 41.2729 22.8862 42.9744C23.5139 44.3124 23.7763 46.0889 23.7763 46.0889L16.7411 46.0965L16.2125 45.0888C14.8745 42.5779 11.4551 42.0328 9.24151 43.982C7.50701 45.5018 6.76366 48.9047 7.39138 52.4233C7.98607 55.6775 9.60493 57.3459 12.1984 57.3459C14.5772 57.3459 17.1026 55.582 17.1026 54.2275L13.5873 54.2362L13.5915 49.0864H24.5051L24.5077 61.3944L32.2195 39.0924H40.3964L48.8706 61.3957V38.4317H68.0327V43.8829L56.5812 43.8813L56.5804 48.9199L65.6374 48.9212V54.3725H56.552V63.1276L41.5382 63.1203L40.6442 59.989L31.8835 59.9766L30.8814 63.1276H19.219L19.2162 59.9579C19.2162 59.9579 18.7069 60.3854 18.2113 60.8645C16.2125 62.7476 13.0739 63.6727 9.93531 63.2928ZM38.8766 54.9176C38.8931 54.6864 36.3492 46.0304 36.2336 45.8982C36.1345 45.7991 33.4253 54.9176 33.4253 54.9176H38.8766Z" fill="white"/>
<path d="M201.807 65.0141C183.759 68.9726 159.968 64.9369 159.968 64.9369C159.968 64.9369 215.441 67.9491 214.053 49.6042C212.602 30.4259 134.236 37.641 134.236 37.641C179.866 29.6764 203.71 37.2141 205.448 37.532C214.501 39.9393 220.378 44.3725 220.916 49.2348C222.363 58.1623 210.011 63.2132 201.807 65.0141Z" fill="white"/>
<path d="M170.582 61.0218C168.708 61.0218 167.433 60.5889 166.759 59.7254C166.085 58.8619 165.966 57.5546 166.526 55.7901L169.76 45.8263C170.428 43.7252 171.288 42.3208 172.339 41.6131C173.389 40.9054 175.031 40.5508 177.266 40.5508H179.56C181.792 40.5508 182.776 40.7863 183.619 41.7524C184.344 42.5822 184.373 43.7259 183.703 45.8271L180.483 55.7831C179.922 57.5476 179.314 59.006 178.09 59.8718C176.865 60.7376 175.03 61.0218 173.156 61.0218H170.582ZM181.004 45.521C181.238 44.7154 181.437 43.9718 181.092 43.441C180.838 43.048 180.468 42.9243 179.764 42.8687C179.121 42.777 177.99 42.8202 177.99 42.8202C177.014 42.8498 176.422 43.0291 175.934 43.4246C175.446 43.8207 175.193 44.2372 174.786 45.514L171.373 56.0783C171.058 57.0646 171.02 57.7559 171.256 58.1527C171.49 58.5488 172.221 58.7962 173.387 58.7962C174.487 58.7932 175.523 58.75 176.44 58.0486C176.97 57.712 177.231 57.0638 177.573 56.0853L181.004 45.521Z" fill="white"/>
<path d="M118.802 60.1974C118.802 60.1974 108.03 60.2086 108.033 60.1989L114.147 41.3695H118.707C118.707 41.3695 113.186 58.0899 113.23 58.0899H119.496L118.802 60.1974Z" fill="white"/>
<path d="M137.619 43.4952C137.613 43.4952 138.33 41.3695 138.33 41.3695H127.391L121.134 60.2028H132.052L132.768 58.0934C132.768 58.0934 126.939 58.0934 126.458 58.0934C126.438 58.0934 127.599 54.621 128.867 50.8408C131.378 50.8408 134.359 50.8408 134.356 50.8408C134.35 50.8408 135.062 48.7158 135.062 48.7158C135.062 48.7158 132.186 48.7158 129.582 48.7151C130.241 46.7529 130.876 44.865 131.337 43.4952C134.3 43.4952 137.622 43.4952 137.619 43.4952Z" fill="white"/>
<path d="M166.034 41.3695L161.994 53.9703L160.3 41.3718L155.846 41.374L149.794 60.2017H154.248L158.309 47.5942C158.309 47.5942 159.97 60.0131 159.999 60.1957L159.998 60.2013L162.583 60.2028L168.627 41.3699L166.034 41.3695Z" fill="white"/>
<path d="M199.743 41.3695H196.351L192.311 46.3088L191.308 41.3695L186.332 41.3752L188.165 49.9291L180.091 60.2028H183.429L188.877 53.2557L190.363 60.1999L195.133 60.2013L193.005 49.7242L199.743 41.3695Z" fill="white"/>
<path d="M150.364 41.3695L146.147 53.9697L144.381 41.374L139.732 41.3762L133.417 60.2026H138.065L142.301 47.595C142.301 47.595 144.036 60.0229 144.065 60.1944L144.063 60.2028H146.762L153.069 41.3705L150.364 41.3695Z" fill="white"/>
<path d="M212.844 65.1153C212.844 66.0155 211.922 66.7536 210.796 66.7536C209.671 66.7536 208.75 66.0155 208.75 65.1153C208.75 64.215 209.671 63.4783 210.796 63.4783C211.921 63.4783 212.844 64.2157 212.844 65.1153ZM209.089 65.1153C209.089 65.8575 209.867 66.4777 210.795 66.4825C211.722 66.4773 212.503 65.8575 212.503 65.1153C212.503 64.3744 211.722 63.7494 210.795 63.7494C209.867 63.7494 209.089 64.3744 209.089 65.1153ZM210.259 64.2247H211.14C211.622 64.2247 211.802 64.428 211.802 64.6179C211.802 64.9856 211.514 65.0973 211.271 65.1932L211.633 65.9383L211.046 66.0016L210.773 65.2835H210.524L210.342 65.9761H209.807L210.259 64.2247ZM210.61 65.0214H210.802C211.079 65.0214 211.254 64.8911 211.254 64.6903C211.254 64.5826 211.147 64.487 210.972 64.487H210.746L210.61 65.0214Z" fill="white"/>
<path fill-rule="evenodd" clip-rule="evenodd" d="M313.895 48.0007C313.095 48.9463 312.295 49.9629 310.841 49.9629C309.387 49.9629 310.769 48.3636 308.66 48.5825C306.553 48.8004 307.206 48.7284 306.698 48.3646C306.189 48.0007 305.88 48.4375 305.607 48.8733C303.79 51.7821 301.803 53.2324 299.719 55.1986C298.388 56.452 297.477 56.8698 297.064 56.528C297.291 56.325 297.52 56.1221 297.756 55.9242C300.009 54.0341 302.554 50.1098 302.554 48.2196C302.554 46.3295 299.573 46.7663 297.974 48.9473C297.08 50.1658 295.258 53.3344 294.659 55.8962C294.036 56.369 293.519 56.7159 293.104 56.9428C292.304 57.3806 291.358 57.7434 292.376 55.3435C293.395 52.9465 294.048 51.3452 294.339 50.4736C294.63 49.601 293.104 49.4561 292.013 50.2557C290.923 51.0544 289.178 53.5253 289.76 51.6361C290.342 49.7469 289.542 47.5659 287.507 49.1652C285.472 50.7635 284.89 51.783 284.091 52.5807C283.291 53.3813 282.927 53.4533 283.8 51.999C284.672 50.5466 285.617 49.1652 286.126 48.3656C286.635 47.5659 285.908 45.5308 284.599 46.8392C284.237 47.2021 283.073 48.9903 281.86 50.9884C281.907 50.5436 281.606 50.0648 280.746 49.8199C280.013 49.611 279.171 49.523 278.31 49.5031C279.472 46.1095 280.964 41.4986 280.964 40.7349C280.964 39.7174 279.365 38.6268 277.911 40.0802C277.12 40.8719 272.815 45.8677 268.799 50.5576C268.494 50.5947 268.188 50.6154 267.881 50.6196C266.426 50.6196 263.665 49.7469 263.665 51.2013C263.665 52.6127 265.376 52.9276 266.872 52.8096C265.097 54.8871 263.325 56.9675 261.557 59.0509C259.957 60.941 262.429 61.6667 263.519 60.3593C265.635 57.8214 268.043 54.9726 270.236 52.3938C271.971 52.1689 273.845 51.937 274.738 51.929C274.523 52.621 274.345 53.3241 274.205 54.0351C273.769 56.36 273.041 56.1431 272.461 56.0712C271.879 55.9972 270.934 56.434 271.879 57.5235C272.824 58.615 272.097 61.3768 274.132 61.3768C275.877 61.3768 275.15 58.2512 277.331 52.2888L277.511 51.791C278.51 51.7441 279.504 51.7421 280.238 51.926C280.702 52.0429 281.13 51.928 281.429 51.7011C280.1 53.9211 278.818 56.2221 278.566 57.0148C278.057 58.614 278.493 60.1404 280.092 60.1404C281.692 60.1404 281.11 58.9769 282.782 57.1597C284.453 55.3425 285.69 54.3249 285.69 54.3249C285.69 54.3249 284.672 56.6499 284.672 57.5225C284.672 58.3951 286.127 59.2678 287.216 58.2512C288.307 57.2317 289.542 55.9962 289.542 55.9962C289.542 55.9962 288.234 60.0664 290.997 60.0664C292.44 60.0664 293.604 59.4497 294.71 58.5921C295.008 59.1898 295.596 59.5586 296.593 59.5586C299.064 59.5586 303.499 54.9786 303.499 54.9786C303.499 54.9786 302.844 57.9593 302.481 58.9049C302.118 59.8495 304.081 60.2853 304.808 58.8309C305.534 57.3786 307.279 51.7071 308.369 51.6351C309.459 51.5631 308.951 52.5077 311.713 52.2888C311.713 52.2888 309.968 57.0157 309.75 58.5401C309.532 60.0664 311.423 60.4322 311.786 58.9779C312.15 57.5235 314.446 51.0634 316.003 48.7284C316.875 47.419 314.694 47.0561 313.895 48.0007ZM317.674 45.7457C318.001 45.7457 318.315 45.6158 318.546 45.3844C318.777 45.1531 318.907 44.8394 318.907 44.5123C318.907 44.1851 318.777 43.8714 318.546 43.6401C318.315 43.4087 318.001 43.2788 317.674 43.2788C317.347 43.2788 317.033 43.4087 316.802 43.6401C316.57 43.8714 316.44 44.1851 316.44 44.5123C316.44 44.8394 316.57 45.1531 316.802 45.3844C317.033 45.6158 317.347 45.7457 317.674 45.7457ZM319.637 52.2169C319.637 52.2169 319.855 53.4523 320.872 53.4523C321.89 53.4523 322.908 51.5621 323.635 50.4726C324.362 49.3821 324.217 48.5105 323.707 48.1467C323.198 47.7828 322.472 47.274 321.745 47.7108C321.017 48.1466 314.112 52.5077 313.603 58.0333C313.208 62.3124 320.436 59.6326 321.671 58.2522C321.671 58.2522 322.471 62.5393 327.341 57.5985C327.341 57.5985 327.632 61.8856 330.248 59.1978C332.865 56.508 334.755 54.18 334.755 54.18C334.755 54.18 333.447 58.9069 335.7 58.9069C336.863 58.9069 341.369 53.9641 341.369 53.9641C341.369 53.9641 340.134 58.8329 340.207 59.8525C340.279 60.8701 341.006 61.7427 341.66 60.2153C342.314 58.689 344.568 53.1634 345.441 51.4922C346.313 49.8199 345.223 48.0027 343.405 49.3111C341.587 50.6196 338.316 53.7452 337.735 54.181C337.153 54.6188 337.662 53.6732 338.171 52.5817C338.68 51.4922 340.207 48.1476 338.607 48.2206C337.007 48.2936 334.318 51.5641 331.992 53.8891C331.992 53.8891 331.701 52.7276 332.573 51.3452C333.446 49.9648 333.809 48.3656 332.646 48.2206C331.483 48.0747 331.265 48.8024 331.265 48.8024C331.265 48.8024 328.211 48.0027 324.941 51.7831C322.829 54.223 323.196 54.7617 323.196 54.7617C323.196 54.7617 319.271 58.3971 317.017 58.3971C314.767 58.3951 317.529 54.106 319.637 52.2169ZM351.259 55.5604C351.259 55.5604 349.077 56.7239 349.077 57.5965C349.077 58.4671 350.168 58.4671 352.276 58.4671C354.384 58.4671 357.218 57.9593 357.218 55.2695C357.218 52.5797 352.929 51.0524 352.929 47.8548C352.929 44.6562 357.509 42.0393 361.87 42.0393C366.231 42.0393 366.16 44.8741 365.068 45.4558C363.978 46.0376 362.014 45.8926 362.089 44.2933C362.089 44.2933 356.127 43.2748 356.127 47.273C356.127 50.5446 360.998 50.7615 360.998 54.6868C360.998 58.612 355.764 61.084 351.621 61.084C347.477 61.084 345.661 59.5576 345.661 58.3212C345.661 57.0847 347.406 55.5604 351.259 55.5604Z" fill="white"/>
<path fill-rule="evenodd" clip-rule="evenodd" d="M391.456 48.8723C389.929 49.3811 385.567 53.1614 384.695 54.106C384.695 54.106 385.495 50.9084 386.221 49.7449C386.95 48.5815 385.276 47.8548 384.259 48.5815C383.241 49.3081 377.645 55.1226 376.625 56.358C376.625 56.358 377.498 53.0885 378.806 51.924C380.117 50.7605 379.316 49.671 378.661 49.8159C378.661 49.8159 378.88 47.345 374.444 48.8713C374.444 48.8713 371.486 48.7264 369.094 48.7914C370.01 46.9902 370.908 45.3749 371.392 44.8001C372.917 42.9829 371.028 42.1113 369.791 43.2738C369.352 43.6886 367.815 46.2775 366.455 48.8443C365.105 48.8403 362.929 48.9233 361.869 49.4531C360.269 50.2527 360.34 52.5777 361.869 52.5777C362.667 52.5777 363.395 51.7051 363.395 51.7051L365.062 51.6071C364.988 51.7651 364.916 51.919 364.847 52.0699C363.467 55.1216 363.395 56.431 362.666 56.504C361.94 56.5759 361.214 57.0137 361.214 58.612C361.214 60.2103 361.941 61.084 363.395 59.7735C364.847 58.4651 365.576 56.5759 366.664 53.9601C366.949 53.2744 367.344 52.3998 367.785 51.4632C369.149 51.3972 370.507 51.3422 371.316 51.3422C371.316 51.3422 366.81 54.9047 366.81 57.3026C366.81 59.7016 369.645 60.6471 373.281 57.9583C373.281 57.9583 374.516 64.2815 381.931 53.5972C381.931 53.5972 380.62 58.613 382.657 58.613C383.675 58.613 388.327 53.6702 389.2 52.9435C389.2 52.9435 387.454 57.7404 387.528 58.9759C387.6 60.2113 387.454 60.3563 388.255 60.3563C389.054 60.3563 390.145 56.8678 391.09 54.4679C392.034 52.0709 392.325 51.924 392.325 51.0514C392.328 50.1827 392.983 48.3645 391.456 48.8723ZM436.524 42.5491C437.252 41.6765 435.653 40.6589 434.343 42.3312C433.034 44.0035 431.58 47.1291 430.926 48.2916C430.926 48.2916 427.578 46.9142 424.743 50.2407C422.922 48.1926 420.022 49.7449 420.022 49.7449C420.313 47.6369 418.279 48.0727 417.623 48.8004C416.969 49.527 413.627 53.3074 412.898 54.253C412.171 55.1975 411.518 55.9242 411.081 55.5614C410.645 55.1985 411.882 52.7986 412.535 51.2003C413.189 49.601 411.591 49.8919 411.591 49.8919C411.591 49.8919 412.1 47.9287 410.282 48.1466C408.464 48.3646 403.771 50.0168 401.559 56.6509C401.474 56.9024 401.408 57.1601 401.362 57.4216C401.038 57.6305 400.659 57.6465 400.322 57.0737C400.103 56.6169 399.967 55.8033 400.396 54.3969C401.194 51.781 404.394 45.02 405.483 43.3478C406.575 41.6765 404.904 40.586 403.812 41.8214C402.721 43.0569 400.324 48.5815 400.324 48.5815C400.324 48.5815 397.343 47.7818 394.435 50.9074C392.571 52.9106 391.236 56.0692 391.236 57.3776C391.236 58.686 392.508 62.9371 397.161 57.9943C398.157 59.6556 398.67 60.0284 399.467 59.9525C403.061 58.3941 401.22 59.5566 402.532 59.5566C405.969 59.5566 407.046 58.664 407.992 57.2686C408.211 60.6851 410.136 59.6306 411.372 58.5391C412.607 57.4496 415.298 54.7597 415.298 54.7597C415.298 54.7597 414.644 57.8854 414.135 58.9039C413.627 59.9215 416.171 59.7026 416.316 58.9039C416.462 58.1033 417.479 56.358 418.497 54.3239C419.824 51.6711 421.913 51.0524 423.368 51.3432C423.582 51.3862 423.763 51.3922 423.92 51.3742C423.731 51.6771 423.545 52.0049 423.368 52.3618C420.387 58.3222 421.114 62.1735 426.565 58.8299C426.565 58.8299 426.633 62.6663 431.946 57.8854C432.672 57.2316 432.453 56.2861 431.292 56.9408C430.129 57.5965 428.746 57.5965 429.547 56.1421C430.347 54.6878 433.92 45.6747 436.524 42.5491Z" fill="white"/>
<path fill-rule="evenodd" clip-rule="evenodd" d="M328.724 51.7071C328.724 51.7071 324.336 54.8108 325.017 56.2871C325.452 57.2317 327.706 53.8152 328.724 51.7071ZM374.883 51.6352C374.883 51.6352 372.846 51.8541 371.538 53.5993C370.23 55.3425 368.922 57.8864 370.811 56.8689C372.7 55.8513 374.737 53.6713 374.883 51.6352ZM398.144 51.3443C398.144 51.3443 396.545 51.8541 395.236 53.8162C393.927 55.7783 393.42 59.0499 395.164 57.1607C396.909 55.2696 397.925 53.3804 398.144 51.3443ZM408.466 51.4183C408.466 51.4183 406.794 52.7267 407.302 54.7608C407.302 54.7608 405.703 56.7969 404.614 56.8689C403.523 56.9408 406.285 50.9804 408.466 51.4183ZM427.365 51.1274C426.565 51.5632 424.748 54.325 424.531 55.7773C424.312 57.2317 424.748 57.4506 425.983 56.1422C427.219 54.8338 427.875 53.0166 428.164 51.8531C428.455 50.6896 427.914 50.8265 427.365 51.1274ZM274.06 49.746C273.576 49.79 272.95 49.8879 272.274 50.0019C275.013 46.7923 277.041 44.4393 277.041 44.4393C277.114 45.0211 276.459 47.347 276.168 48.0008C275.939 48.5317 275.724 49.0687 275.523 49.6111C274.989 49.656 274.492 49.706 274.06 49.746ZM299.866 50.1828C300.443 50.6316 298.755 52.3828 297.251 53.7382C298.34 50.5436 299.211 49.673 299.866 50.1828Z" fill="white"/>
</svg>
