<svg width="390" height="110" viewBox="0 0 390 110" fill="none" xmlns="http://www.w3.org/2000/svg">
<rect width="390" height="110" rx="8" fill="white"/>
<rect x="10.5" y="10.5" width="179" height="39" rx="3.5" stroke="#0B5D1E"/>
<path d="M23.484 35V24.78H25.724L30.918 33.768H31.366L31.086 34.02V24.78H32.402V35H30.134L24.94 26.012H24.492L24.772 25.76V35H23.484ZM39.6937 35V32.76H39.4697V30.17C39.4697 29.6567 39.3343 29.2693 39.0637 29.008C38.8023 28.7467 38.415 28.616 37.9017 28.616C37.6123 28.616 37.3137 28.6207 37.0057 28.63C36.6977 28.6393 36.4037 28.6487 36.1237 28.658C35.8437 28.6673 35.601 28.6813 35.3957 28.7V27.524C35.601 27.5053 35.8157 27.4913 36.0397 27.482C36.273 27.4633 36.511 27.454 36.7537 27.454C36.9963 27.4447 37.2297 27.44 37.4537 27.44C38.219 27.44 38.8443 27.5333 39.3297 27.72C39.815 27.8973 40.1743 28.1913 40.4077 28.602C40.641 29.0127 40.7577 29.568 40.7577 30.268V35H39.6937ZM37.2437 35.196C36.6837 35.196 36.1983 35.1027 35.7877 34.916C35.3863 34.72 35.0737 34.44 34.8497 34.076C34.635 33.712 34.5277 33.2733 34.5277 32.76C34.5277 32.228 34.6443 31.7847 34.8777 31.43C35.1203 31.0753 35.4703 30.8093 35.9277 30.632C36.385 30.4453 36.9357 30.352 37.5797 30.352H39.6097V31.36H37.5237C36.9823 31.36 36.567 31.4907 36.2777 31.752C35.9883 32.0133 35.8437 32.3493 35.8437 32.76C35.8437 33.1707 35.9883 33.502 36.2777 33.754C36.567 34.006 36.9823 34.132 37.5237 34.132C37.841 34.132 38.1443 34.076 38.4337 33.964C38.723 33.8427 38.961 33.6467 39.1477 33.376C39.3437 33.096 39.451 32.7133 39.4697 32.228L39.8337 32.76C39.787 33.292 39.6563 33.74 39.4417 34.104C39.2363 34.4587 38.947 34.7293 38.5737 34.916C38.2097 35.1027 37.7663 35.196 37.2437 35.196ZM43.2272 35V27.524H44.2912V30.73H44.1232C44.1232 30.002 44.2165 29.386 44.4032 28.882C44.5992 28.3687 44.8885 27.9767 45.2712 27.706C45.6539 27.4353 46.1392 27.3 46.7272 27.3H46.7832C47.3712 27.3 47.8565 27.4353 48.2392 27.706C48.6312 27.9767 48.9205 28.3687 49.1072 28.882C49.2939 29.386 49.3872 30.002 49.3872 30.73H48.9952C48.9952 30.002 49.0932 29.386 49.2892 28.882C49.4852 28.3687 49.7745 27.9767 50.1572 27.706C50.5492 27.4353 51.0392 27.3 51.6272 27.3H51.6832C52.2712 27.3 52.7612 27.4353 53.1532 27.706C53.5452 27.9767 53.8345 28.3687 54.0212 28.882C54.2172 29.386 54.3152 30.002 54.3152 30.73V35H52.9712V30.436C52.9712 29.8293 52.8219 29.3627 52.5232 29.036C52.2245 28.7 51.8092 28.532 51.2772 28.532C50.7265 28.532 50.2832 28.7093 49.9472 29.064C49.6112 29.4093 49.4432 29.8947 49.4432 30.52V35H48.0992V30.436C48.0992 29.8293 47.9499 29.3627 47.6512 29.036C47.3525 28.7 46.9372 28.532 46.4052 28.532C45.8545 28.532 45.4112 28.7093 45.0752 29.064C44.7392 29.4093 44.5712 29.8947 44.5712 30.52V35H43.2272ZM59.9568 35.252C59.3035 35.252 58.7388 35.14 58.2628 34.916C57.7868 34.692 57.3995 34.398 57.1008 34.034C56.8022 33.6607 56.5782 33.2453 56.4288 32.788C56.2888 32.3307 56.2188 31.864 56.2188 31.388V31.136C56.2188 30.6507 56.2888 30.1793 56.4288 29.722C56.5782 29.2647 56.8022 28.854 57.1008 28.49C57.3995 28.1167 57.7775 27.8227 58.2348 27.608C58.7015 27.384 59.2475 27.272 59.8728 27.272C60.6848 27.272 61.3522 27.4493 61.8748 27.804C62.4068 28.1493 62.7988 28.5973 63.0508 29.148C63.3122 29.6987 63.4428 30.2867 63.4428 30.912V31.514H56.8068V30.506H62.4628L62.1548 31.052C62.1548 30.52 62.0708 30.0627 61.9028 29.68C61.7348 29.288 61.4828 28.9847 61.1468 28.77C60.8108 28.5553 60.3862 28.448 59.8728 28.448C59.3408 28.448 58.8975 28.5693 58.5428 28.812C58.1975 29.0547 57.9362 29.386 57.7588 29.806C57.5908 30.226 57.5068 30.7113 57.5068 31.262C57.5068 31.794 57.5908 32.2747 57.7588 32.704C57.9362 33.124 58.2068 33.46 58.5708 33.712C58.9348 33.9547 59.3968 34.076 59.9568 34.076C60.5448 34.076 61.0208 33.9453 61.3848 33.684C61.7582 33.4227 61.9822 33.1193 62.0568 32.774H63.3168C63.2142 33.2873 63.0088 33.7307 62.7008 34.104C62.3928 34.4773 62.0055 34.762 61.5388 34.958C61.0722 35.154 60.5448 35.252 59.9568 35.252Z" fill="#666666"/>
<rect x="200.5" y="10.5" width="179" height="39" rx="3.5" stroke="#0B5D1E"/>
<path d="M214.576 31.444V30.24H216.858C217.343 30.24 217.745 30.1467 218.062 29.96C218.379 29.764 218.617 29.5027 218.776 29.176C218.944 28.8493 219.028 28.4853 219.028 28.084C219.028 27.6733 218.944 27.3047 218.776 26.978C218.617 26.6513 218.379 26.3947 218.062 26.208C217.745 26.0213 217.343 25.928 216.858 25.928H214.576V24.724H216.606C217.446 24.724 218.146 24.8593 218.706 25.13C219.275 25.3913 219.705 25.7647 219.994 26.25C220.283 26.7353 220.428 27.3093 220.428 27.972V28.196C220.428 28.8493 220.283 29.4233 219.994 29.918C219.705 30.4033 219.275 30.7813 218.706 31.052C218.146 31.3133 217.446 31.444 216.606 31.444H214.576ZM213.484 35V24.724H214.856V35H213.484ZM222.246 35V24.78H223.59V30.884H223.254C223.254 30.1467 223.347 29.512 223.534 28.98C223.73 28.4387 224.029 28.0233 224.43 27.734C224.831 27.4447 225.345 27.3 225.97 27.3H226.026C226.922 27.3 227.599 27.5987 228.056 28.196C228.513 28.784 228.742 29.6287 228.742 30.73V35H227.398V30.45C227.398 29.8433 227.225 29.372 226.88 29.036C226.544 28.7 226.105 28.532 225.564 28.532C224.967 28.532 224.486 28.7327 224.122 29.134C223.767 29.526 223.59 30.044 223.59 30.688V35H222.246ZM234.648 35.252C233.994 35.252 233.42 35.14 232.926 34.916C232.431 34.692 232.011 34.398 231.666 34.034C231.33 33.6607 231.073 33.2453 230.896 32.788C230.728 32.3307 230.644 31.864 230.644 31.388V31.136C230.644 30.66 230.732 30.1933 230.91 29.736C231.087 29.2693 231.348 28.854 231.694 28.49C232.039 28.1167 232.459 27.8227 232.954 27.608C233.448 27.384 234.013 27.272 234.648 27.272C235.282 27.272 235.847 27.384 236.342 27.608C236.836 27.8227 237.256 28.1167 237.602 28.49C237.947 28.854 238.208 29.2693 238.386 29.736C238.563 30.1933 238.652 30.66 238.652 31.136V31.388C238.652 31.864 238.563 32.3307 238.386 32.788C238.218 33.2453 237.961 33.6607 237.616 34.034C237.28 34.398 236.864 34.692 236.37 34.916C235.875 35.14 235.301 35.252 234.648 35.252ZM234.648 34.048C235.208 34.048 235.684 33.9267 236.076 33.684C236.477 33.432 236.78 33.096 236.986 32.676C237.2 32.256 237.308 31.7847 237.308 31.262C237.308 30.73 237.2 30.254 236.986 29.834C236.771 29.414 236.463 29.0827 236.062 28.84C235.67 28.5973 235.198 28.476 234.648 28.476C234.106 28.476 233.635 28.5973 233.234 28.84C232.832 29.0827 232.524 29.414 232.31 29.834C232.095 30.254 231.988 30.73 231.988 31.262C231.988 31.7847 232.09 32.256 232.296 32.676C232.51 33.096 232.814 33.432 233.206 33.684C233.607 33.9267 234.088 34.048 234.648 34.048ZM240.667 35V27.524H241.731V30.73H241.563C241.563 29.9927 241.661 29.372 241.857 28.868C242.063 28.3547 242.371 27.9673 242.781 27.706C243.192 27.4353 243.71 27.3 244.335 27.3H244.391C245.334 27.3 246.029 27.594 246.477 28.182C246.935 28.77 247.163 29.6193 247.163 30.73V35H245.819V30.45C245.819 29.8713 245.656 29.4093 245.329 29.064C245.003 28.7093 244.555 28.532 243.985 28.532C243.397 28.532 242.921 28.714 242.557 29.078C242.193 29.442 242.011 29.9273 242.011 30.534V35H240.667ZM252.803 35.252C252.15 35.252 251.585 35.14 251.109 34.916C250.633 34.692 250.246 34.398 249.947 34.034C249.649 33.6607 249.425 33.2453 249.275 32.788C249.135 32.3307 249.065 31.864 249.065 31.388V31.136C249.065 30.6507 249.135 30.1793 249.275 29.722C249.425 29.2647 249.649 28.854 249.947 28.49C250.246 28.1167 250.624 27.8227 251.081 27.608C251.548 27.384 252.094 27.272 252.719 27.272C253.531 27.272 254.199 27.4493 254.721 27.804C255.253 28.1493 255.645 28.5973 255.897 29.148C256.159 29.6987 256.289 30.2867 256.289 30.912V31.514H249.653V30.506H255.309L255.001 31.052C255.001 30.52 254.917 30.0627 254.749 29.68C254.581 29.288 254.329 28.9847 253.993 28.77C253.657 28.5553 253.233 28.448 252.719 28.448C252.187 28.448 251.744 28.5693 251.389 28.812C251.044 29.0547 250.783 29.386 250.605 29.806C250.437 30.226 250.353 30.7113 250.353 31.262C250.353 31.794 250.437 32.2747 250.605 32.704C250.783 33.124 251.053 33.46 251.417 33.712C251.781 33.9547 252.243 34.076 252.803 34.076C253.391 34.076 253.867 33.9453 254.231 33.684C254.605 33.4227 254.829 33.1193 254.903 32.774H256.163C256.061 33.2873 255.855 33.7307 255.547 34.104C255.239 34.4773 254.852 34.762 254.385 34.958C253.919 35.154 253.391 35.252 252.803 35.252Z" fill="#666666"/>
<rect x="10.5" y="60.5" width="179" height="39" rx="3.5" stroke="#0B5D1E"/>
<path d="M26.802 85.252C25.9527 85.252 25.2293 85.112 24.632 84.832C24.0347 84.552 23.5773 84.1647 23.26 83.67C22.9427 83.1753 22.784 82.6153 22.784 81.99H24.156C24.156 82.298 24.2353 82.606 24.394 82.914C24.562 83.222 24.8373 83.4787 25.22 83.684C25.612 83.8893 26.1393 83.992 26.802 83.992C27.418 83.992 27.922 83.9033 28.314 83.726C28.706 83.5393 28.9953 83.3013 29.182 83.012C29.3687 82.7133 29.462 82.3913 29.462 82.046C29.462 81.626 29.28 81.2807 28.916 81.01C28.552 80.73 28.02 80.5573 27.32 80.492L26.186 80.394C25.2807 80.3193 24.5573 80.0393 24.016 79.554C23.4747 79.0687 23.204 78.4293 23.204 77.636C23.204 77.0107 23.3533 76.4647 23.652 75.998C23.96 75.5313 24.3847 75.1673 24.926 74.906C25.4673 74.6353 26.0973 74.5 26.816 74.5C27.5253 74.5 28.1507 74.6307 28.692 74.892C29.2333 75.1533 29.6533 75.522 29.952 75.998C30.26 76.4647 30.414 77.0247 30.414 77.678H29.042C29.042 77.3513 28.9627 77.0433 28.804 76.754C28.6547 76.4647 28.4167 76.2267 28.09 76.04C27.7633 75.8533 27.3387 75.76 26.816 75.76C26.312 75.76 25.892 75.8487 25.556 76.026C25.2293 76.2033 24.982 76.4367 24.814 76.726C24.6553 77.006 24.576 77.3093 24.576 77.636C24.576 78.0093 24.7207 78.3407 25.01 78.63C25.2993 78.9193 25.7287 79.0873 26.298 79.134L27.432 79.232C28.132 79.288 28.734 79.4373 29.238 79.68C29.7513 79.9133 30.1433 80.2307 30.414 80.632C30.694 81.024 30.834 81.4953 30.834 82.046C30.834 82.6713 30.666 83.2267 30.33 83.712C29.994 84.1973 29.5227 84.5753 28.916 84.846C28.3093 85.1167 27.6047 85.252 26.802 85.252ZM36.1211 85.252C35.4678 85.252 34.9031 85.14 34.4271 84.916C33.9511 84.692 33.5638 84.398 33.2651 84.034C32.9665 83.6607 32.7425 83.2453 32.5931 82.788C32.4531 82.3307 32.3831 81.864 32.3831 81.388V81.136C32.3831 80.6507 32.4531 80.1793 32.5931 79.722C32.7425 79.2647 32.9665 78.854 33.2651 78.49C33.5638 78.1167 33.9418 77.8227 34.3991 77.608C34.8658 77.384 35.4118 77.272 36.0371 77.272C36.8491 77.272 37.5165 77.4493 38.0391 77.804C38.5711 78.1493 38.9631 78.5973 39.2151 79.148C39.4765 79.6987 39.6071 80.2867 39.6071 80.912V81.514H32.9711V80.506H38.6271L38.3191 81.052C38.3191 80.52 38.2351 80.0627 38.0671 79.68C37.8991 79.288 37.6471 78.9847 37.3111 78.77C36.9751 78.5553 36.5505 78.448 36.0371 78.448C35.5051 78.448 35.0618 78.5693 34.7071 78.812C34.3618 79.0547 34.1005 79.386 33.9231 79.806C33.7551 80.226 33.6711 80.7113 33.6711 81.262C33.6711 81.794 33.7551 82.2747 33.9231 82.704C34.1005 83.124 34.3711 83.46 34.7351 83.712C35.0991 83.9547 35.5611 84.076 36.1211 84.076C36.7091 84.076 37.1851 83.9453 37.5491 83.684C37.9225 83.4227 38.1465 83.1193 38.2211 82.774H39.4811C39.3785 83.2873 39.1731 83.7307 38.8651 84.104C38.5571 84.4773 38.1698 84.762 37.7031 84.958C37.2365 85.154 36.7091 85.252 36.1211 85.252ZM41.5182 85V77.524H42.5822V80.604H42.5262C42.5262 79.512 42.7642 78.714 43.2402 78.21C43.7255 77.6967 44.4489 77.44 45.4102 77.44H45.6622V78.644H45.1862C44.4395 78.644 43.8655 78.8447 43.4642 79.246C43.0629 79.638 42.8622 80.2073 42.8622 80.954V85H41.5182ZM49.1053 85L46.5573 77.524H47.9573L50.4493 85H49.1053ZM49.4413 85V83.936H51.0653V85H49.4413ZM50.0853 85L52.2553 77.524H53.5713L51.3593 85H50.0853ZM55.6964 85V77.524H57.0404V85H55.6964ZM54.5484 78.588V77.524H57.0404V78.588H54.5484ZM56.0744 76.32C55.7757 76.32 55.5517 76.2407 55.4024 76.082C55.2624 75.9233 55.1924 75.7227 55.1924 75.48C55.1924 75.2373 55.2624 75.0367 55.4024 74.878C55.5517 74.7193 55.7757 74.64 56.0744 74.64C56.3731 74.64 56.5924 74.7193 56.7324 74.878C56.8817 75.0367 56.9564 75.2373 56.9564 75.48C56.9564 75.7227 56.8817 75.9233 56.7324 76.082C56.5924 76.2407 56.3731 76.32 56.0744 76.32ZM62.8478 85.252C62.2038 85.252 61.6438 85.14 61.1678 84.916C60.7012 84.692 60.3138 84.3933 60.0058 84.02C59.6978 83.6373 59.4645 83.2173 59.3058 82.76C59.1565 82.3027 59.0818 81.8453 59.0818 81.388V81.136C59.0818 80.66 59.1565 80.1933 59.3058 79.736C59.4645 79.2787 59.6978 78.868 60.0058 78.504C60.3232 78.1307 60.7152 77.832 61.1818 77.608C61.6485 77.384 62.1945 77.272 62.8198 77.272C63.4452 77.272 64.0052 77.3887 64.4998 77.622C65.0038 77.8553 65.4052 78.1867 65.7038 78.616C66.0118 79.036 66.1845 79.5353 66.2218 80.114H64.9338C64.8685 79.6473 64.6538 79.26 64.2898 78.952C63.9258 78.6347 63.4358 78.476 62.8198 78.476C62.2878 78.476 61.8445 78.5973 61.4898 78.84C61.1352 79.0827 60.8692 79.414 60.6918 79.834C60.5145 80.254 60.4258 80.73 60.4258 81.262C60.4258 81.7753 60.5145 82.2467 60.6918 82.676C60.8692 83.096 61.1352 83.432 61.4898 83.684C61.8538 83.9267 62.3065 84.048 62.8478 84.048C63.2678 84.048 63.6318 83.9733 63.9398 83.824C64.2478 83.6747 64.4952 83.474 64.6818 83.222C64.8685 82.97 64.9805 82.6853 65.0178 82.368H66.3058C66.2778 82.956 66.1052 83.4647 65.7878 83.894C65.4798 84.3233 65.0692 84.6593 64.5558 84.902C64.0518 85.1353 63.4825 85.252 62.8478 85.252ZM71.3129 85.252C70.6595 85.252 70.0949 85.14 69.6189 84.916C69.1429 84.692 68.7555 84.398 68.4569 84.034C68.1582 83.6607 67.9342 83.2453 67.7849 82.788C67.6449 82.3307 67.5749 81.864 67.5749 81.388V81.136C67.5749 80.6507 67.6449 80.1793 67.7849 79.722C67.9342 79.2647 68.1582 78.854 68.4569 78.49C68.7555 78.1167 69.1335 77.8227 69.5909 77.608C70.0575 77.384 70.6035 77.272 71.2289 77.272C72.0409 77.272 72.7082 77.4493 73.2309 77.804C73.7629 78.1493 74.1549 78.5973 74.4069 79.148C74.6682 79.6987 74.7989 80.2867 74.7989 80.912V81.514H68.1629V80.506H73.8189L73.5109 81.052C73.5109 80.52 73.4269 80.0627 73.2589 79.68C73.0909 79.288 72.8389 78.9847 72.5029 78.77C72.1669 78.5553 71.7422 78.448 71.2289 78.448C70.6969 78.448 70.2535 78.5693 69.8989 78.812C69.5535 79.0547 69.2922 79.386 69.1149 79.806C68.9469 80.226 68.8629 80.7113 68.8629 81.262C68.8629 81.794 68.9469 82.2747 69.1149 82.704C69.2922 83.124 69.5629 83.46 69.9269 83.712C70.2909 83.9547 70.7529 84.076 71.3129 84.076C71.9009 84.076 72.3769 83.9453 72.7409 83.684C73.1142 83.4227 73.3382 83.1193 73.4129 82.774H74.6729C74.5702 83.2873 74.3649 83.7307 74.0569 84.104C73.7489 84.4773 73.3615 84.762 72.8949 84.958C72.4282 85.154 71.9009 85.252 71.3129 85.252Z" fill="#666666"/>
<path d="M90 78C90 78 87.0541 82 86 82C84.9459 82 82 78 82 78" stroke="#666666" stroke-width="1.5" stroke-linecap="round" stroke-linejoin="round"/>
<rect x="200" y="60" width="180" height="40" rx="4" fill="#0B5D1E"/>
<path d="M264.958 87.27C264.028 87.27 263.188 87.111 262.438 86.793C261.694 86.469 261.079 86.01 260.593 85.416C260.113 84.816 259.801 84.105 259.657 83.283L261.619 82.986C261.817 83.778 262.231 84.396 262.861 84.84C263.491 85.278 264.226 85.497 265.066 85.497C265.588 85.497 266.068 85.416 266.506 85.254C266.944 85.086 267.295 84.849 267.559 84.543C267.829 84.231 267.964 83.859 267.964 83.427C267.964 83.193 267.922 82.986 267.838 82.806C267.76 82.626 267.649 82.47 267.505 82.338C267.367 82.2 267.196 82.083 266.992 81.987C266.794 81.885 266.575 81.798 266.335 81.726L263.014 80.745C262.69 80.649 262.36 80.526 262.024 80.376C261.688 80.22 261.379 80.019 261.097 79.773C260.821 79.521 260.596 79.212 260.422 78.846C260.248 78.474 260.161 78.024 260.161 77.496C260.161 76.698 260.365 76.023 260.773 75.471C261.187 74.913 261.745 74.493 262.447 74.211C263.149 73.923 263.935 73.779 264.805 73.779C265.681 73.791 266.464 73.947 267.154 74.247C267.85 74.547 268.426 74.979 268.882 75.543C269.344 76.101 269.662 76.779 269.836 77.577L267.82 77.919C267.73 77.433 267.538 77.016 267.244 76.668C266.95 76.314 266.59 76.044 266.164 75.858C265.738 75.666 265.276 75.567 264.778 75.561C264.298 75.549 263.857 75.621 263.455 75.777C263.059 75.933 262.741 76.152 262.501 76.434C262.267 76.716 262.15 77.04 262.15 77.406C262.15 77.766 262.255 78.057 262.465 78.279C262.675 78.501 262.933 78.678 263.239 78.81C263.551 78.936 263.86 79.041 264.166 79.125L266.56 79.8C266.86 79.884 267.199 79.998 267.577 80.142C267.961 80.28 268.33 80.475 268.684 80.727C269.044 80.979 269.341 81.315 269.575 81.735C269.809 82.149 269.926 82.671 269.926 83.301C269.926 83.955 269.794 84.531 269.53 85.029C269.266 85.521 268.903 85.935 268.441 86.271C267.985 86.601 267.457 86.85 266.857 87.018C266.257 87.186 265.624 87.27 264.958 87.27ZM275.511 87.261C274.839 87.261 274.275 87.153 273.819 86.937C273.363 86.721 272.991 86.439 272.703 86.091C272.421 85.737 272.205 85.353 272.055 84.939C271.905 84.525 271.803 84.12 271.749 83.724C271.695 83.328 271.668 82.98 271.668 82.68V77.28H273.576V82.059C273.576 82.437 273.606 82.827 273.666 83.229C273.732 83.625 273.852 83.994 274.026 84.336C274.206 84.678 274.455 84.954 274.773 85.164C275.097 85.374 275.517 85.479 276.033 85.479C276.369 85.479 276.687 85.425 276.987 85.317C277.287 85.203 277.548 85.023 277.77 84.777C277.998 84.531 278.175 84.207 278.301 83.805C278.433 83.403 278.499 82.914 278.499 82.338L279.669 82.779C279.669 83.661 279.504 84.441 279.174 85.119C278.844 85.791 278.37 86.316 277.752 86.694C277.134 87.072 276.387 87.261 275.511 87.261ZM278.724 87V84.192H278.499V77.28H280.398V87H278.724ZM287.488 87.27C286.558 87.27 285.778 87.045 285.148 86.595C284.518 86.139 284.041 85.524 283.717 84.75C283.393 83.976 283.231 83.103 283.231 82.131C283.231 81.159 283.39 80.286 283.708 79.512C284.032 78.738 284.506 78.129 285.13 77.685C285.76 77.235 286.534 77.01 287.452 77.01C288.364 77.01 289.15 77.235 289.81 77.685C290.476 78.129 290.989 78.738 291.349 79.512C291.709 80.28 291.889 81.153 291.889 82.131C291.889 83.103 291.709 83.979 291.349 84.759C290.995 85.533 290.488 86.145 289.828 86.595C289.174 87.045 288.394 87.27 287.488 87.27ZM282.916 87V74.04H284.806V80.007H284.59V87H282.916ZM287.227 85.569C287.827 85.569 288.322 85.416 288.712 85.11C289.108 84.804 289.402 84.393 289.594 83.877C289.792 83.355 289.891 82.773 289.891 82.131C289.891 81.495 289.792 80.919 289.594 80.403C289.402 79.887 289.105 79.476 288.703 79.17C288.301 78.864 287.788 78.711 287.164 78.711C286.576 78.711 286.09 78.855 285.706 79.143C285.328 79.431 285.046 79.833 284.86 80.349C284.68 80.865 284.59 81.459 284.59 82.131C284.59 82.803 284.68 83.397 284.86 83.913C285.04 84.429 285.325 84.834 285.715 85.128C286.105 85.422 286.609 85.569 287.227 85.569ZM305.526 87L305.535 80.943C305.535 80.241 305.355 79.695 304.995 79.305C304.635 78.909 304.161 78.711 303.573 78.711C303.213 78.711 302.883 78.795 302.583 78.963C302.289 79.125 302.049 79.371 301.863 79.701C301.683 80.025 301.593 80.433 301.593 80.925L300.684 80.466C300.672 79.782 300.816 79.182 301.116 78.666C301.422 78.15 301.836 77.751 302.358 77.469C302.88 77.181 303.465 77.037 304.113 77.037C305.163 77.037 305.976 77.352 306.552 77.982C307.128 78.612 307.416 79.449 307.416 80.493L307.407 87H305.526ZM293.871 87V77.28H295.545V80.088H295.761V87H293.871ZM299.703 87L299.712 80.979C299.712 80.271 299.532 79.716 299.172 79.314C298.818 78.912 298.341 78.711 297.741 78.711C297.147 78.711 296.667 78.915 296.301 79.323C295.941 79.731 295.761 80.265 295.761 80.925L294.861 80.349C294.861 79.713 295.014 79.146 295.32 78.648C295.626 78.15 296.04 77.757 296.562 77.469C297.084 77.181 297.675 77.037 298.335 77.037C299.025 77.037 299.613 77.184 300.099 77.478C300.585 77.766 300.954 78.171 301.206 78.693C301.464 79.215 301.593 79.821 301.593 80.511L301.584 87H299.703ZM309.937 75.687V73.86H311.818V75.687H309.937ZM309.937 87V77.28H311.818V87H309.937ZM320.086 87C319.474 87.12 318.874 87.171 318.286 87.153C317.698 87.135 317.173 87.021 316.711 86.811C316.249 86.601 315.901 86.271 315.667 85.821C315.457 85.419 315.343 85.011 315.325 84.597C315.313 84.177 315.307 83.703 315.307 83.175V74.58H317.197V83.085C317.197 83.475 317.2 83.814 317.206 84.102C317.218 84.39 317.281 84.633 317.395 84.831C317.611 85.203 317.953 85.416 318.421 85.47C318.895 85.518 319.45 85.497 320.086 85.407V87ZM313.444 78.792V77.28H320.086V78.792H313.444Z" fill="white"/>
</svg>
